<?xml version="1.0" encoding="utf-8"?>
<!-- Generator: Adobe Illustrator 26.0.1, SVG Export Plug-In . SVG Version: 6.00 Build 0)  -->
<svg version="1.1" id="Layer_1" xmlns="http://www.w3.org/2000/svg" xmlns:xlink="http://www.w3.org/1999/xlink" x="0px" y="0px"
	 viewBox="0 0 99 26" style="enable-background:new 0 0 99 26;" xml:space="preserve">
<style type="text/css">
	.st0{fill:#0EFF01;}
</style>
<g>
	<g>
		<path class="st0" d="M1.3,1.3h1.3v4.3h5.3V1.3h1.3v10H7.9V6.8H2.6v4.6H1.3V1.3z"/>
		<path class="st0" d="M14.1,1.3h1.5l3.9,10H18l-1.1-3h-4.2l-1.1,3h-1.4L14.1,1.3z M13.1,7.2h3.4l-1.7-4.7l0,0L13.1,7.2z"/>
		<path class="st0" d="M27.5,4.4c-0.3-1.4-1.4-2.1-2.8-2.1c-2.4,0-3.4,2-3.4,4c0,2.3,1,4.2,3.4,4.2c1.8,0,2.8-1.2,2.9-2.9h1.3
			c-0.3,2.5-1.8,4-4.3,4c-3.1,0-4.6-2.3-4.6-5.2s1.7-5.3,4.7-5.3c2.1,0,3.8,1.1,4.1,3.2L27.5,4.4L27.5,4.4z"/>
		<path class="st0" d="M32.8,6.6v1.3h-1.3v3.4h-1.3v-10h1.3v5.3C31.5,6.6,32.8,6.6,32.8,6.6z M32.8,6.6V5.3h1.3v1.3
			C34.1,6.6,32.8,6.6,32.8,6.6z M34.1,5.3V4h1.3v1.3H34.1z M34.1,7.9V6.6h1.3v1.3C35.4,7.9,34.1,7.9,34.1,7.9z M35.4,4V2.7h1.3V4
			H35.4z M35.4,9.3V7.9h1.3v1.3h-1.3V9.3z M36.7,2.7V1.4H38v1.3C38,2.7,36.7,2.7,36.7,2.7z M36.7,11.3v-2H38v2.1L36.7,11.3
			L36.7,11.3z"/>
		<path class="st0" d="M47.8,7.3v4.1h-1.3V7.3l-3.9-5.9h1.6l3,4.8l2.9-4.8h1.5L47.8,7.3z"/>
		<path class="st0" d="M53.7,8.7h-1.3V4h1.3V8.7z M55,2.7h-1.3V4H55V2.7z M55,10h-1.3V8.7H55V10z M55,1.4h4v1.3h-4V1.4z M58.9,11.3
			h-4V10h4V11.3z M58.9,2.7h1.3V4h-1.3V2.7z M58.9,10h1.3V8.7h-1.3V10z M60.3,8.7h1.3V4h-1.3V8.7z"/>
		<path class="st0" d="M71.3,7.7c0,2.5-1.4,3.9-3.9,3.9c-2.6,0-4.1-1.2-4.1-3.9V1.3h1.3v6.4c0,1.8,1,2.7,2.8,2.7
			c1.7,0,2.6-1,2.6-2.7V1.3h1.3C71.3,1.3,71.3,7.7,71.3,7.7z"/>
		<path class="st0" d="M73.5,1.3h4.7c1.9,0,3,1,3,2.6c0,1.2-0.5,2.2-1.7,2.5l0,0c1.2,0.2,1.4,1.1,1.5,2.1s0,2.1,0.6,2.8h-1.5
			c-0.4-0.4-0.2-1.5-0.4-2.5C79.6,7.8,79.3,7,78,7h-3.2v4.3h-1.3V1.3z M77.6,6c1.2,0,2.3-0.3,2.3-1.8c0-1-0.5-1.7-1.8-1.7h-3.3V6
			H77.6z"/>
		<path class="st0" d="M1.3,15.4h6.6v1.1H2.6v3.2h4.6v1.1H2.6v4.6H1.3V15.4z"/>
		<path class="st0" d="M8.9,15.4h1.3V24H8.9V15.4z M15.5,24v1.3h-5.3V24H15.5z M15.5,15.4h1.3V24h-1.3C15.5,24,15.5,15.4,15.5,15.4z
			"/>
		<path class="st0" d="M20.8,16.5h-3.3v-1.1h8v1.1h-3.3v8.9h-1.3v-8.9H20.8z"/>
		<path class="st0" d="M34.6,21.7c0,2.5-1.4,3.9-3.9,3.9c-2.6,0-4.1-1.2-4.1-3.9v-6.4h1.3v6.4c0,1.8,1,2.7,2.8,2.7
			c1.7,0,2.6-1,2.6-2.7v-6.4h1.3C34.6,15.3,34.6,21.7,34.6,21.7z"/>
		<path class="st0" d="M36.7,15.4h4.7c1.9,0,3,1,3,2.6c0,1.2-0.5,2.2-1.7,2.5l0,0c1.2,0.2,1.4,1.1,1.5,2.1s0,2.1,0.6,2.8h-1.5
			c-0.4-0.4-0.2-1.5-0.4-2.5c-0.1-1-0.4-1.8-1.7-1.8H38v4.3h-1.3V15.4z M40.8,20c1.2,0,2.3-0.3,2.3-1.8c0-1-0.5-1.7-1.8-1.7H38V20
			H40.8z"/>
		<path class="st0" d="M47.2,16.7v3h4V21h-4v3h-1.3v-7.4L47.2,16.7L47.2,16.7z M52.5,15.4h-5.3v1.3h5.3V15.4z M52.5,24h-5.3v1.3h5.3
			V24z"/>
	</g>
</g>
</svg>
